<svg xmlns="http://www.w3.org/2000/svg" width="420" height="480" viewBox="0 0 42 48" fill="none">
<path fill-rule="evenodd" clip-rule="evenodd" d="M36.5327 14.7128C35.8553 14.7118 35.1838 14.8386 34.5537 15.0866L31.6567 16.1839V5.446C31.6553 4.00205 31.0792 2.61764 30.055 1.59662C29.0308 0.575594 27.6421 0.00137821 26.1936 0C25.522 0.00188756 24.8565 0.125353 24.2292 0.364385L3.55083 8.17265C2.51001 8.5633 1.61298 9.26031 0.978788 10.1711C0.344596 11.0818 0.00323175 12.1633 0 13.272V34.0242C0.00133264 34.9034 0.21607 35.7693 0.62588 36.5479C1.03569 37.3265 1.6284 37.9946 2.35341 38.4952C3.07843 38.996 3.91421 39.3143 4.78942 39.4231C5.66463 39.532 6.55325 39.4282 7.37942 39.1204L10.3298 38.0095L10.3392 42.5644C10.3428 44.0067 10.9198 45.3888 11.9438 46.4076C12.9679 47.4265 14.3554 47.9991 15.8022 48C16.4776 48.002 17.1473 47.877 17.776 47.6314L38.4544 39.8294C39.4934 39.436 40.3884 38.7379 41.0214 37.8272C41.6543 36.9165 41.9955 35.8359 42 34.728V20.1588C41.9984 18.7142 41.4217 17.3294 40.3966 16.3083C39.3715 15.2872 37.9819 14.7134 36.5327 14.7128Z" fill="url(#paint0_linear)"/>
<path fill-rule="evenodd" clip-rule="evenodd" d="M35.4238 17.3166C35.7769 17.1779 36.1533 17.1072 36.5329 17.1084C37.3436 17.1103 38.1206 17.4323 38.6937 18.0041C39.2668 18.5758 39.5894 19.3505 39.5907 20.1588V34.7238C39.5882 35.3457 39.3963 35.9522 39.0403 36.4629C38.6842 36.9737 38.181 37.3645 37.5971 37.5837L16.9114 45.4013C16.5582 45.54 16.1819 45.6107 15.8023 45.6095C14.9915 45.6092 14.2139 45.2883 13.64 44.7173C13.0661 44.1462 12.7429 43.3715 12.7413 42.5633L12.7225 34.5468L6.53464 36.8788C6.07188 37.0505 5.57438 37.1081 5.08449 37.0467C4.5946 36.9854 4.12683 36.807 3.721 36.5266C3.31518 36.2463 2.98332 35.8723 2.75368 35.4366C2.52404 35.001 2.40342 34.5164 2.4021 34.0241V13.272C2.40435 12.6506 2.5963 12.0446 2.95244 11.5347C3.30858 11.0247 3.81201 10.635 4.39579 10.4172L25.0846 2.60274C25.5484 2.42378 26.049 2.36007 26.5431 2.41711C27.0372 2.47414 27.5099 2.65022 27.9204 2.93013C28.331 3.21004 28.6669 3.58536 28.8994 4.02369C29.1319 4.46201 29.2539 4.95016 29.2547 5.44599V19.6487L35.4238 17.3166ZM7.18259 35.2134C7.42495 34.8638 7.55541 34.4492 7.55703 34.0241V29.9837C7.55426 29.3823 7.72915 28.7935 8.05997 28.2907C8.39072 27.7878 8.8627 27.3932 9.41698 27.156C9.44589 27.144 9.4748 27.1332 9.50371 27.1225C9.53224 27.1119 9.56077 27.1013 9.5893 27.0894L28.2938 20.0151V5.44599C28.2933 4.89088 28.0718 4.35867 27.6781 3.96616C27.2843 3.57365 26.7505 3.35289 26.1936 3.35234C25.9323 3.35176 25.6733 3.40052 25.4302 3.49601L4.73201 11.3126C4.331 11.4617 3.98512 11.729 3.74049 12.0791C3.49587 12.4292 3.36413 12.8453 3.36285 13.272V34.0241C3.36451 34.5793 3.58719 35.1112 3.98198 35.5028C4.37676 35.8944 4.91135 36.1137 5.46828 36.1126C5.71766 36.1126 5.96511 36.0689 6.19933 35.9835C6.59752 35.8316 6.94031 35.5631 7.18259 35.2134ZM8.27357 35.1974C8.43275 34.8265 8.51579 34.4276 8.51796 34.0241V29.9837C8.51654 29.5722 8.63595 29.1693 8.86138 28.8246C9.08687 28.48 9.40861 28.2087 9.78691 28.0441L9.91635 27.9962C10.1433 27.9245 10.3802 27.8894 10.6182 27.8921C10.8938 27.8912 11.1669 27.9448 11.4216 28.0497C11.6764 28.1545 11.9078 28.3086 12.1025 28.503C12.2972 28.6974 12.4515 28.9284 12.5563 29.1825C12.6611 29.4366 12.7144 29.7089 12.7132 29.9837L12.7226 33.5234L8.27357 35.1974ZM38.2545 35.9201C38.499 35.5702 38.631 35.1544 38.6331 34.728V20.1588C38.6325 19.6038 38.411 19.0717 38.0172 18.6793C37.6235 18.287 37.0896 18.0665 36.5329 18.0662C36.2715 18.0652 36.0124 18.114 35.7694 18.2099L11.934 27.2351C12.4549 27.4825 12.8949 27.872 13.2028 28.3584C13.5107 28.8449 13.6741 29.4084 13.6738 29.9837L13.7021 42.5591C13.7028 42.8994 13.7866 43.2343 13.9465 43.5349C14.1063 43.8356 14.3373 44.0928 14.6194 44.2844C14.9014 44.4759 15.2261 44.5961 15.5653 44.6343C15.9044 44.6726 16.2478 44.6278 16.5657 44.5038L37.2639 36.6873C37.6645 36.5376 38.01 36.2701 38.2545 35.9201Z" fill="white"/>
<path fill-rule="evenodd" clip-rule="evenodd" d="M32.252 23.1239C32.3 23.1041 33.7465 22.5492 34.8128 23.2717C35.4999 23.7371 35.8457 24.5794 35.8457 25.7724V30.5323C35.8081 32.7603 34.2927 34.0003 33.3527 34.5562L27.333 36.8164V24.9239L32.252 23.1239ZM32.2811 34.0242C32.3866 33.9857 34.8419 33.0175 34.8848 30.5188V25.7725C34.8848 24.9146 34.679 24.3451 34.2749 24.0671C33.6315 23.6267 32.6028 24.014 32.5934 24.0192L28.2938 25.5903V35.5713L32.2811 34.0242Z" fill="white"/>
<path fill-rule="evenodd" clip-rule="evenodd" d="M24.9739 29.8244C24.9739 32.5636 22.74 33.842 21.9901 34.1918L25.305 37.5838L24.3253 37.9471L21.0241 34.575L17.421 35.969V40.5384L16.4602 40.9017V28.978L21.3802 27.178L21.3814 27.1775C21.4504 27.1513 22.8804 26.6078 23.9452 27.3258C24.6282 27.788 24.9739 28.6261 24.9739 29.8244ZM17.421 29.6422V34.9435L21.4104 33.3964C21.5211 33.3589 24.0151 32.3772 24.0151 29.8244C24.0151 28.9666 23.8125 28.3918 23.4093 28.1191C22.7608 27.6787 21.7331 28.066 21.7227 28.0712L17.421 29.6422Z" fill="white"/>
<path fill-rule="evenodd" clip-rule="evenodd" d="M20.4383 8.70259L21.6832 8.23303L26.4904 17.7206L25.587 18.061L24.2575 15.451L18.1606 17.7549L16.854 21.3426L15.6655 21.7829L20.4383 8.70259ZM21.2039 9.40633L18.593 16.5619L23.8273 14.5889L21.2039 9.40633Z" fill="white"/>
<path fill-rule="evenodd" clip-rule="evenodd" d="M14.5426 22.2035L13.5442 22.5825L8.78196 18.1036L6.59191 21.0448V25.1925L5.6311 25.5516V14.2922L6.59191 13.9278V19.4404L12.2994 11.7727L13.9661 11.1449L9.35845 17.328L14.5426 22.2035Z" fill="white"/>
<defs>
<linearGradient id="paint0_linear" x1="0" y1="0" x2="42.6491" y2="47.4145" gradientUnits="userSpaceOnUse">
<stop stop-color="#5E00F0"/>
<stop offset="1" stop-color="#BD3FDD"/>
</linearGradient>
</defs>
</svg>